# xmcd
# 
# Track frame offsets:
#     150
#     19542
#     37698
#     55859
#     86412
#     96666
#     126981
#     136453
# 
# Disc length: 2333
# 
# Revision: 0
# Processed by: cddbd v1.5.2PL0 Copyright (c) Steve Scherf et al.
# Submitted via: fre:ac v1.1beta1pre4
# 
DISCID=62091b08
DTITLE=The Diamond Family Archive - Black Autumn
DYEAR=2019
DGENRE=Folk
TTITLE0=Teigngrace
TTITLE1=I Was In My Fingers
TTITLE2=Nettle
TTITLE3=Good Animals Are We
TTITLE4=Here Is the Corn
TTITLE5=Coo Coo
TTITLE6=Black Autumn
TTITLE7=The Opposite Of Blind
EXTD=
EXTT0=
EXTT1=
EXTT2=
EXTT3=
EXTT4=
EXTT5=
EXTT6=
EXTT7=
PLAYORDER=
